<svg  viewBox="0 0 73 73"  xmlns="http://www.w3.org/2000/svg">
<g clip-path="url(#clip0_6_446)">
<path d="M50.6559 44.615C54.9275 44.615 58.402 41.14 58.402 36.8689V13.4185C58.402 9.14712 54.9275 5.67163 50.6559 5.67163H7.74488C3.47426 5.67163 0 9.14712 0 13.4185V36.8689C0 41.14 3.47426 44.615 7.74488 44.615H13.3816V52.7232C13.3816 53.7093 13.9754 54.5978 14.8861 54.9751C15.1879 55.0997 15.5045 55.1602 15.8181 55.1602C16.4523 55.1602 17.0759 54.9127 17.5421 54.4464L27.3716 44.615H50.6559Z"/>
<path d="M66.2198 25.9514H62.3009V36.8689C62.3009 43.2902 57.0771 48.514 50.6558 48.514H28.9867L24.4304 53.0715C24.9795 56.2636 27.7651 58.7006 31.1113 58.7006H49.9787L57.891 66.6141C58.357 67.0803 58.9808 67.3281 59.6149 67.3281C59.9286 67.3281 60.2451 67.2669 60.547 67.1423C61.4576 66.765 62.0512 65.8767 62.0512 64.8908V58.7003H66.2201C69.9588 58.7003 73.0002 55.6579 73.0002 51.9187V32.732C73 28.9933 69.9586 25.9514 66.2198 25.9514Z"/>
</g>
<defs>
<clipPath id="clip0_6_446">
<rect width="73" height="73" />
</clipPath>
</defs>
</svg>
