<svg width="45" height="29" viewBox="0 0 45 29"  xmlns="http://www.w3.org/2000/svg">
<path d="M42.4438 0.238663H2.55619C1.14937 0.238663 0 1.37883 0 2.79485V26.2051C0 27.612 1.14017 28.7613 2.55619 28.7613H42.4438C43.8506 28.7613 45 27.6212 45 26.2051V2.79485C44.9908 1.37883 43.8506 0.238663 42.4438 0.238663ZM28.1273 5.6085C28.1273 5.2591 28.4123 4.97405 28.7617 4.97405H31.3639C31.7133 4.97405 31.9984 5.2591 31.9984 5.6085V8.16469C31.9984 8.5141 31.7133 8.79914 31.3639 8.79914H28.7617C28.4123 8.79914 28.1273 8.5141 28.1273 8.16469V5.6085ZM24.9642 12.5507H27.5664C27.9158 12.5507 28.2009 12.8357 28.2009 13.1851V15.7413C28.2009 16.0907 27.9158 16.3758 27.5664 16.3758H24.9642C24.6148 16.3758 24.3298 16.0907 24.3298 15.7413V13.1851C24.3298 12.8357 24.6148 12.5507 24.9642 12.5507ZM20.5691 5.6085C20.5691 5.2591 20.8541 4.97405 21.2035 4.97405H23.8057C24.1551 4.97405 24.4401 5.2591 24.4401 5.6085V8.16469C24.4401 8.5141 24.1551 8.79914 23.8057 8.79914H21.2035C20.8541 8.79914 20.5691 8.5141 20.5691 8.16469V5.6085ZM17.3968 12.5507H19.999C20.3484 12.5507 20.6334 12.8357 20.6334 13.1851V15.7413C20.6334 16.0907 20.3484 16.3758 19.999 16.3758H17.3968C17.0474 16.3758 16.7624 16.0907 16.7624 15.7413V13.1851C16.7624 12.8357 17.0474 12.5507 17.3968 12.5507ZM13.0016 5.6085C13.0016 5.2591 13.2867 4.97405 13.6361 4.97405H16.2383C16.5877 4.97405 16.8727 5.2591 16.8727 5.6085V8.16469C16.8727 8.5141 16.5877 8.79914 16.2383 8.79914H13.6361C13.2867 8.79914 13.0016 8.5141 13.0016 8.16469V5.6085ZM5.39743 5.6085C5.39743 5.2591 5.68247 4.97405 6.03188 4.97405H8.63404C8.98345 4.97405 9.26849 5.2591 9.26849 5.6085V8.16469C9.26849 8.5141 8.98345 8.79914 8.63404 8.79914H6.03188C5.68247 8.79914 5.39743 8.5141 5.39743 8.16469V5.6085ZM9.26849 23.3915C9.26849 23.7409 8.98345 24.0259 8.63404 24.0259H6.03188C5.68247 24.0259 5.39743 23.7409 5.39743 23.3915V20.8353C5.39743 20.4859 5.68247 20.2009 6.03188 20.2009H8.63404C8.98345 20.2009 9.26849 20.4859 9.26849 20.8353V23.3915ZM12.3948 16.3758H9.7926C9.4432 16.3758 9.15815 16.0907 9.15815 15.7413V13.1851C9.15815 12.8357 9.4432 12.5507 9.7926 12.5507H12.3948C12.7442 12.5507 13.0292 12.8357 13.0292 13.1851V15.7413C13.0292 16.0907 12.7442 16.3758 12.3948 16.3758ZM31.9984 23.3915C31.9984 23.7409 31.7133 24.0259 31.3639 24.0259H30.5823H28.7709H23.8149H21.2127H13.6453C13.2959 24.0259 13.0108 23.7409 13.0108 23.3915V20.8353C13.0108 20.4859 13.2959 20.2009 13.6453 20.2009H21.2127H23.8149H28.7709H30.5823H31.3639C31.7133 20.2009 31.9984 20.4859 31.9984 20.8353V23.3915ZM35.1246 16.3758H32.5225C32.1731 16.3758 31.888 16.0907 31.888 15.7413V13.1851C31.888 12.8357 32.1731 12.5507 32.5225 12.5507H35.1246C35.4741 12.5507 35.7591 12.8357 35.7591 13.1851V15.7413C35.7591 16.0907 35.4741 16.3758 35.1246 16.3758ZM39.6026 23.3915C39.6026 23.7409 39.3175 24.0259 38.9681 24.0259H36.366C36.0166 24.0259 35.7315 23.7409 35.7315 23.3915V20.8353C35.7315 20.4859 36.0166 20.2009 36.366 20.2009H38.9681C39.3175 20.2009 39.6026 20.4859 39.6026 20.8353V23.3915ZM39.6026 8.16469C39.6026 8.5141 39.3175 8.79914 38.9681 8.79914H36.366C36.0166 8.79914 35.7315 8.5141 35.7315 8.16469V5.6085C35.7315 5.2591 36.0166 4.97405 36.366 4.97405H38.9681C39.3175 4.97405 39.6026 5.2591 39.6026 5.6085V8.16469Z"/>
</svg>
