<svg width="27" height="30" viewBox="0 0 27 37"  xmlns="http://www.w3.org/2000/svg">
<path d="M2.61862 36.0607H24.4736C25.3788 36.0607 26.1127 35.3268 26.1127 34.4216V15.8449C26.1127 14.9396 25.3788 14.2057 24.4736 14.2057H22.8345V9.28837C22.8345 4.16676 18.6677 0 13.5461 0C8.4245 0 4.25785 4.16676 4.25785 9.28837V14.2057H2.61862C1.71338 14.2057 0.979492 14.9396 0.979492 15.8449V34.4216C0.979492 35.3268 1.71338 36.0607 2.61862 36.0607ZM7.5361 9.28837C7.5361 5.97439 10.2322 3.27825 13.5461 3.27825C16.8601 3.27825 19.5562 5.97439 19.5562 9.28837V14.2057H7.5361V9.28837Z" />
</svg>
