<svg width="24" height="24" viewBox="0 0 24 24" fill="none" xmlns="http://www.w3.org/2000/svg">
<path d="M22.1519 3.00256H1.8481C0.83038 3.00256 0 3.83294 0 4.85067V19.1494C0 20.1671 0.83038 20.9975 1.8481 20.9975H22.1519C23.1696 20.9975 24 20.1671 24 19.1494V4.85067C24 3.83294 23.1696 3.00256 22.1519 3.00256ZM21.8835 4.36965L12.1266 12.714L2.36962 4.36965H21.8835ZM22.6329 19.1494C22.6329 19.4127 22.4152 19.6304 22.1519 19.6304H1.8481C1.58481 19.6304 1.36709 19.4127 1.36709 19.1494V5.31142L11.681 14.1317C11.6835 14.1342 11.6873 14.1367 11.6911 14.1393C11.6949 14.1418 11.6987 14.1443 11.7013 14.1469C11.7038 14.1494 11.7076 14.1519 11.7114 14.1545C11.7152 14.157 11.719 14.1595 11.7215 14.1621C11.7261 14.1651 11.7301 14.1681 11.734 14.171C11.7432 14.1778 11.7514 14.1838 11.762 14.1874C11.7646 14.1899 11.7671 14.1912 11.7696 14.1924C11.7722 14.1937 11.7747 14.195 11.7772 14.1975L11.838 14.2279C11.8405 14.2279 11.843 14.2291 11.8456 14.2304C11.8481 14.2317 11.8506 14.2329 11.8532 14.2329C11.8593 14.235 11.8655 14.2379 11.872 14.2409C11.8815 14.2454 11.8917 14.2502 11.9038 14.2532C11.9063 14.2532 11.9101 14.2545 11.9139 14.2557C11.9177 14.257 11.9215 14.2583 11.9241 14.2583C11.9392 14.2633 11.9544 14.2684 11.9696 14.2684C11.9722 14.2684 11.976 14.2697 11.9797 14.2709C11.9835 14.2722 11.9873 14.2735 11.9899 14.2735C11.9975 14.276 12.0063 14.2772 12.0152 14.2785C12.0241 14.2798 12.0329 14.281 12.0405 14.2836H12.0557C12.0658 14.2836 12.0772 14.2848 12.0886 14.2861C12.1 14.2874 12.1114 14.2886 12.1215 14.2886C12.1418 14.2886 12.1671 14.2886 12.1873 14.2836H12.2025C12.2177 14.2836 12.238 14.2785 12.2532 14.2735C12.2557 14.2735 12.2595 14.2722 12.2633 14.2709C12.2671 14.2697 12.2709 14.2684 12.2734 14.2684C12.2886 14.2633 12.3038 14.2583 12.319 14.2583C12.3215 14.2583 12.3253 14.257 12.3291 14.2557C12.3329 14.2545 12.3367 14.2532 12.3392 14.2532C12.3544 14.2481 12.3696 14.2431 12.3899 14.2329C12.3924 14.2329 12.3949 14.2317 12.3975 14.2304C12.4 14.2291 12.4025 14.2279 12.4051 14.2279L12.4658 14.1975C12.4684 14.195 12.4709 14.1937 12.4734 14.1924C12.476 14.1912 12.4785 14.1899 12.481 14.1874C12.4886 14.1823 12.4949 14.1785 12.5013 14.1747C12.5076 14.1709 12.5139 14.1671 12.5215 14.1621C12.5241 14.1595 12.5278 14.157 12.5316 14.1545C12.5354 14.1519 12.5392 14.1494 12.5418 14.1469C12.5443 14.1443 12.5481 14.1418 12.5519 14.1393C12.5557 14.1367 12.5595 14.1342 12.562 14.1317L22.6329 5.52915V19.1494Z"/>
<path d="M22.1519 3.00256H1.8481C0.83038 3.00256 0 3.83294 0 4.85067V19.1494C0 20.1671 0.83038 20.9975 1.8481 20.9975H22.1519C23.1696 20.9975 24 20.1671 24 19.1494V4.85067C24 3.83294 23.1696 3.00256 22.1519 3.00256ZM21.8835 4.36965L12.1266 12.714L2.36962 4.36965H21.8835ZM22.6329 19.1494C22.6329 19.4127 22.4152 19.6304 22.1519 19.6304H1.8481C1.58481 19.6304 1.36709 19.4127 1.36709 19.1494V5.31142L11.681 14.1317C11.6835 14.1342 11.6873 14.1367 11.6911 14.1393C11.6949 14.1418 11.6987 14.1443 11.7013 14.1469C11.7038 14.1494 11.7076 14.1519 11.7114 14.1545C11.7152 14.157 11.719 14.1595 11.7215 14.1621C11.7261 14.1651 11.7301 14.1681 11.734 14.171C11.7432 14.1778 11.7514 14.1838 11.762 14.1874C11.7646 14.1899 11.7671 14.1912 11.7696 14.1924C11.7722 14.1937 11.7747 14.195 11.7772 14.1975L11.838 14.2279C11.8405 14.2279 11.843 14.2291 11.8456 14.2304C11.8481 14.2317 11.8506 14.2329 11.8532 14.2329C11.8593 14.235 11.8655 14.2379 11.872 14.2409C11.8815 14.2454 11.8917 14.2502 11.9038 14.2532C11.9063 14.2532 11.9101 14.2545 11.9139 14.2557C11.9177 14.257 11.9215 14.2583 11.9241 14.2583C11.9392 14.2633 11.9544 14.2684 11.9696 14.2684C11.9722 14.2684 11.976 14.2697 11.9797 14.2709C11.9835 14.2722 11.9873 14.2735 11.9899 14.2735C11.9975 14.276 12.0063 14.2772 12.0152 14.2785C12.0241 14.2798 12.0329 14.281 12.0405 14.2836H12.0557C12.0658 14.2836 12.0772 14.2848 12.0886 14.2861C12.1 14.2874 12.1114 14.2886 12.1215 14.2886C12.1418 14.2886 12.1671 14.2886 12.1873 14.2836H12.2025C12.2177 14.2836 12.238 14.2785 12.2532 14.2735C12.2557 14.2735 12.2595 14.2722 12.2633 14.2709C12.2671 14.2697 12.2709 14.2684 12.2734 14.2684C12.2886 14.2633 12.3038 14.2583 12.319 14.2583C12.3215 14.2583 12.3253 14.257 12.3291 14.2557C12.3329 14.2545 12.3367 14.2532 12.3392 14.2532C12.3544 14.2481 12.3696 14.2431 12.3899 14.2329C12.3924 14.2329 12.3949 14.2317 12.3975 14.2304C12.4 14.2291 12.4025 14.2279 12.4051 14.2279L12.4658 14.1975C12.4684 14.195 12.4709 14.1937 12.4734 14.1924C12.476 14.1912 12.4785 14.1899 12.481 14.1874C12.4886 14.1823 12.4949 14.1785 12.5013 14.1747C12.5076 14.1709 12.5139 14.1671 12.5215 14.1621C12.5241 14.1595 12.5278 14.157 12.5316 14.1545C12.5354 14.1519 12.5392 14.1494 12.5418 14.1469C12.5443 14.1443 12.5481 14.1418 12.5519 14.1393C12.5557 14.1367 12.5595 14.1342 12.562 14.1317L22.6329 5.52915V19.1494Z"/>
</svg>
