<svg viewBox="0 0 60 60" xmlns="http://www.w3.org/2000/svg">
<path d="M48.014 42.889L38.461 38.113C37.56 37.662 37 36.756 37 35.748V32.367C37.229 32.087 37.47 31.768 37.719 31.416C38.958 29.666 39.951 27.718 40.673 25.617C42.084 24.97 43 23.575 43 22V18C43 17.037 42.64 16.104 42 15.375V10.056C42.056 9.506 42.276 6.232 39.908 3.531C37.854 1.188 34.521 0 30 0C25.479 0 22.146 1.188 20.092 3.53C17.724 6.231 17.944 9.506 18 10.056V15.375C17.36 16.104 17 17.037 17 18V22C17 23.217 17.553 24.352 18.497 25.109C19.413 28.736 21.33 31.469 22 32.346V35.655C22 36.623 21.472 37.511 20.623 37.975L11.702 42.841C8.801 44.424 7 47.458 7 50.762V54C7 58.746 22.045 60 30 60C37.955 60 53 58.746 53 54V50.957C53 47.519 51.089 44.427 48.014 42.889Z"/>
</svg>
