<svg width="41" height="41" viewBox="0 0 41 41"  xmlns="http://www.w3.org/2000/svg">
<path d="M1.7329 23.5973L4.41991 23.614C4.8217 25.6816 5.61692 27.6905 6.82231 29.5154L4.91378 31.4071C4.22738 32.0852 4.22738 33.1817 4.89704 33.8681L6.95624 35.9525C7.63427 36.6389 8.73083 36.6389 9.41723 35.9692L11.3258 34.0774C13.1338 35.2995 15.1344 36.1282 17.202 36.5468L17.1853 39.2338C17.1769 40.1964 17.9554 40.9749 18.918 40.9833L21.8478 41C22.8104 41.0084 23.5889 40.2299 23.5973 39.2673L23.614 36.5803C25.6816 36.1785 27.6905 35.3832 29.5154 34.1779L31.4071 36.0864C32.0852 36.7728 33.1817 36.7728 33.8681 36.1031L35.9525 34.0439C36.6389 33.3659 36.6389 32.2693 35.9692 31.5829L34.0774 29.6744C35.2995 27.8663 36.1282 25.8657 36.5468 23.7982L39.2338 23.8149C40.1964 23.8233 40.9749 23.0448 40.9833 22.0822L41 19.1524C41.0084 18.1898 40.2299 17.4113 39.2673 17.4029L36.5803 17.3862C36.1785 15.3186 35.3832 13.3096 34.1779 11.4848L36.0864 9.59302C36.7728 8.91499 36.7728 7.81842 36.1031 7.13202L34.0439 5.04771C33.3659 4.36131 32.2693 4.36131 31.5829 5.03097L29.6744 6.92275C27.8663 5.70063 25.8657 4.87192 23.7982 4.45339L23.8149 1.76638C23.8233 0.803749 23.0448 0.0252706 22.0822 0.0168999L19.1524 0.000158431C18.1898 -0.0082123 17.4113 0.770266 17.4029 1.7329L17.3778 4.41991C15.3019 4.8217 13.2929 5.61692 11.4764 6.82231L9.58465 4.91378C8.90662 4.22738 7.81005 4.22738 7.12365 4.89704L5.04771 6.95624C4.36131 7.63427 4.36131 8.73083 5.03097 9.41723L6.92275 11.3258C5.70063 13.1338 4.87192 15.1344 4.45339 17.202L1.76638 17.1853C0.803749 17.1769 0.0252706 17.9554 0.0168999 18.918L0.000158431 21.8478C-0.0082123 22.802 0.770266 23.5889 1.7329 23.5973ZM15.0089 14.9503C18.0726 11.9201 23.0029 11.9452 26.0331 15.0089C29.0633 18.0726 29.0382 23.0029 25.9745 26.0331C22.9109 29.0633 17.9805 29.0382 14.9503 25.9745C11.9201 22.9109 11.9452 17.9805 15.0089 14.9503Z"/>
</svg>
