<svg viewBox="0 0 37 37" xmlns="http://www.w3.org/2000/svg">
<path d="M19.1236 0.515982V0.515974L19.1206 0.515889L18.782 0.506327L18.779 0.506234L18.7784 0.506203C18.6926 0.503265 18.5973 0.5 18.5 0.5C18.4027 0.5 18.3074 0.503265 18.2216 0.506203L18.2199 0.506262L18.218 0.506327L17.882 0.515249L17.8782 0.515379C12.9713 0.683385 8.55901 2.82418 5.40847 6.16609C5.39709 6.17695 5.38382 6.19061 5.36988 6.20721C2.35357 9.42574 0.5 13.7492 0.5 18.5C0.5 23.0543 2.20369 27.2169 5.00124 30.3893C5.00651 30.3973 5.01222 30.4056 5.01838 30.4139C5.04227 30.4462 5.06601 30.4711 5.08489 30.489C5.09163 30.4954 5.0981 30.5013 5.10383 30.5063C8.27124 34.0364 12.811 36.3111 17.877 36.4846L17.88 36.4847L18.2203 36.4944L18.2209 36.4944C18.2347 36.4948 18.2489 36.4952 18.2634 36.4956C18.3369 36.4977 18.4186 36.5 18.5 36.5C18.598 36.5 18.694 36.4967 18.7803 36.4937C18.7809 36.4937 18.7814 36.4937 18.782 36.4937L19.118 36.4847L19.1218 36.4846C24.1902 36.3106 28.7329 34.0338 31.9002 30.5C31.9423 30.4627 31.9702 30.4264 31.9863 30.4035C34.7912 27.2292 36.5 23.0611 36.5 18.5C36.5 13.7448 34.643 9.41778 31.6224 6.19775C31.6196 6.1946 31.6154 6.19001 31.6104 6.18473C31.6084 6.18254 31.606 6.18007 31.6033 6.17736L31.6014 6.17529L31.6013 6.17536L31.6014 6.17528C28.4503 2.82808 24.0349 0.684142 19.1236 0.515982ZM5.44201 6.13678C5.4438 6.13532 5.44529 6.13414 5.4464 6.13326C5.44742 6.13245 5.44856 6.13156 5.44933 6.13096L5.44201 6.13678ZM5.12746 30.526C5.12799 30.5264 5.12782 30.5263 5.12736 30.5259L5.12746 30.526ZM31.8443 30.5431C31.8444 30.543 31.8446 30.5429 31.8447 30.5429L31.8443 30.5431ZM8.95775 31.0719L8.65503 31.4699L8.95775 31.0719C8.26409 30.5443 8.35691 29.5081 9.15763 29.0989C9.39567 28.9772 9.63577 28.8603 9.87782 28.7483C10.5412 28.4413 11.3668 28.757 11.7722 29.4931C11.8897 29.7066 12.0107 29.9182 12.1352 30.128C12.5335 30.7989 12.4633 31.546 12.1624 32.0098C12.0143 32.2381 11.822 32.3821 11.6176 32.4386C11.4196 32.4933 11.1578 32.4805 10.8337 32.2998C10.1785 31.9345 9.55174 31.5238 8.95775 31.0719ZM12.0173 7.0583L12.4495 7.30976L12.0173 7.0583C11.6069 7.76377 10.8074 8.06604 10.1569 7.77727L9.954 8.23427L10.1569 7.77727C9.98866 7.70261 9.82138 7.62563 9.65506 7.54635C8.81699 7.14686 8.7286 6.07449 9.46422 5.55927C9.90482 5.25068 10.3618 4.96404 10.8335 4.70092C11.1578 4.52003 11.4195 4.50715 11.617 4.56156C11.8208 4.6177 12.0123 4.76114 12.1597 4.98867C12.4593 5.45103 12.5287 6.19693 12.1294 6.8678C12.0918 6.93112 12.0544 6.99462 12.0173 7.0583ZM2.92246 21.085C2.7952 20.315 3.42622 19.6034 4.29676 19.6034H7.51778C8.32089 19.6034 9.00743 20.2506 9.10409 21.1019C9.24221 22.3185 9.47662 23.5136 9.80286 24.6783C10.0386 25.52 9.62146 26.4311 8.83017 26.8025C8.31603 27.0439 7.80999 27.305 7.31285 27.5857C6.5948 27.9912 5.75387 27.8367 5.36285 27.2516C4.14333 25.4267 3.29438 23.3353 2.92246 21.085ZM5.68833 9.27991C6.08641 8.72838 6.89353 8.58927 7.59014 8.96931C8.03966 9.21456 8.49633 9.44395 8.95949 9.65739C9.77393 10.0327 10.198 10.9777 9.93774 11.8367C9.53857 13.154 9.25888 14.5129 9.10301 15.8987C9.00731 16.7495 8.3211 17.3966 7.51796 17.3966H4.29679C3.42629 17.3966 2.79521 16.6849 2.92247 15.9149C3.32662 13.4693 4.29404 11.2117 5.68833 9.27991ZM34.0775 15.9149C34.2048 16.6849 33.5737 17.3966 32.7032 17.3966H29.482C28.6789 17.3966 27.9927 16.7495 27.897 15.8987C27.7411 14.5129 27.4614 13.154 27.0623 11.8367C26.802 10.9777 27.2261 10.0327 28.0405 9.65739C28.5037 9.44395 28.9603 9.21456 29.4099 8.96931C30.1065 8.58927 30.9136 8.72838 31.3117 9.27991C32.706 11.2117 33.6734 13.4693 34.0775 15.9149ZM17.3966 7.97187C17.3966 8.83179 16.6948 9.47502 15.908 9.37643C15.6722 9.34689 15.4372 9.31332 15.2032 9.27574C14.3264 9.13495 13.8996 8.18343 14.3773 7.43506C14.6668 6.98168 14.9746 6.539 15.3002 6.10799C15.6762 5.61034 16.1808 5.53506 16.5976 5.70569C17.0281 5.88194 17.3966 6.33782 17.3966 6.99449V7.97187ZM15.8985 11.5981C16.7495 11.6942 17.3966 12.3804 17.3966 13.1835V15.8966C17.3966 16.725 16.725 17.3966 15.8966 17.3966H12.7294C11.8697 17.3966 11.2264 16.6949 11.3247 15.9078C11.4831 14.6393 11.7571 13.3977 12.1412 12.1962C12.3579 11.5185 13.115 11.1224 13.9145 11.2851C14.5693 11.4183 15.2311 11.5227 15.8985 11.5981ZM19.6034 13.1835C19.6034 12.3804 20.2505 11.6942 21.1015 11.5982C21.7689 11.5229 22.4308 11.4186 23.0857 11.2853C23.8855 11.1226 24.6428 11.5187 24.8595 12.1966C25.2436 13.3979 25.5175 14.6394 25.6759 15.9078C25.7742 16.6949 25.1309 17.3966 24.2712 17.3966H21.1034C20.275 17.3966 19.6034 16.725 19.6034 15.8966V13.1835ZM21.092 9.37643C20.3052 9.47502 19.6034 8.83179 19.6034 7.97186V6.99449C19.6034 6.33781 19.9719 5.88194 20.4024 5.70569C20.8192 5.53506 21.3238 5.61034 21.6998 6.10799C22.0254 6.539 22.3332 6.98168 22.6227 7.43506C23.1004 8.18343 22.6736 9.13495 21.7968 9.27574C21.5628 9.31332 21.3278 9.34689 21.092 9.37643ZM26.8432 7.77728C26.1926 8.06604 25.3931 7.76377 24.9827 7.0583C24.9454 6.99428 24.9078 6.93043 24.8699 6.86677C24.4707 6.19597 24.5401 5.45023 24.8396 4.98799C24.987 4.76051 25.1784 4.61709 25.3823 4.56096C25.5798 4.50656 25.8414 4.51943 26.1657 4.70029C26.6376 4.96348 27.0948 5.25021 27.5356 5.55891C28.2714 6.07422 28.183 7.14694 27.3447 7.5465C27.1785 7.62573 27.0113 7.70266 26.8432 7.77728ZM11.3247 21.0916C11.2263 20.3049 11.8693 19.6034 12.7291 19.6034H15.8966C16.725 19.6034 17.3966 20.275 17.3966 21.1034V23.2134C17.3966 24.0165 16.7494 24.7028 15.8983 24.7987C15.1785 24.8798 14.4653 24.9946 13.7605 25.143C12.9379 25.3162 12.1597 24.8974 11.9586 24.1947C11.6693 23.1841 11.4569 22.1472 11.3247 21.0916ZM15.9079 27.0203C16.6948 26.9219 17.3966 27.5653 17.3966 28.4252V30.0054C17.3966 30.6621 17.0281 31.1179 16.5977 31.2941C16.181 31.4646 15.6765 31.3893 15.3006 30.8916C14.8403 30.2821 14.4157 29.6493 14.0281 28.996C13.5863 28.2514 14.0082 27.3304 14.8602 27.1788C15.2074 27.1171 15.5567 27.0643 15.9079 27.0203ZM21.6994 30.8916C21.3235 31.3893 20.819 31.4646 20.4023 31.2941C19.9719 31.1179 19.6034 30.6621 19.6034 30.0054V28.4245C19.6034 27.5648 20.3048 26.9216 21.0914 27.02C21.4427 27.0639 21.792 27.1167 22.1392 27.1784C22.9914 27.33 23.4136 28.2512 22.9718 28.996C22.5842 29.6493 22.1596 30.2821 21.6994 30.8916ZM21.1017 24.7987C20.2506 24.7028 19.6034 24.0165 19.6034 23.2134V21.1034C19.6034 20.275 20.275 19.6034 21.1034 19.6034H24.2709C25.1307 19.6034 25.7737 20.3049 25.6752 21.0916C25.5431 22.1472 25.3306 23.1842 25.0412 24.195C24.84 24.8976 24.0615 25.3164 23.2386 25.1431C22.5342 24.9946 21.8213 24.8798 21.1017 24.7987ZM27.896 21.1019C27.9926 20.2506 28.6791 19.6034 29.4822 19.6034H32.7032C33.5738 19.6034 34.2048 20.315 34.0776 21.085C33.7057 23.3354 32.8569 25.4269 31.6372 27.2519C31.2462 27.8369 30.4053 27.9913 29.6874 27.5858C29.1903 27.3052 28.6843 27.0441 28.1702 26.8027C27.3789 26.4312 26.9617 25.5199 27.1975 24.6779C27.5237 23.5134 27.758 22.3183 27.896 21.1019ZM26.1676 32.2991C25.8435 32.4798 25.5817 32.4926 25.3837 32.4379C25.1792 32.3814 24.9869 32.2374 24.8388 32.009C24.5378 31.5451 24.4675 30.7978 24.8657 30.1267C24.9899 29.9174 25.1106 29.7063 25.2279 29.4933C25.6333 28.757 26.4589 28.4414 27.1223 28.7485C27.3641 28.8604 27.604 28.9772 27.8419 29.0987C28.6428 29.5081 28.7356 30.5445 28.0419 31.0722C27.4484 31.5236 26.8222 31.934 26.1676 32.2991Z" />
</svg>
